# xmcd
#
# Track frame offsets:
#	150
#	13993
#	31220
#	44069
#	59863
#	70433
#	87289
#	98822
#	110255
#	124766
#	138482
#	151460
#	161594
#	175559
#	188160
#	202228
#	214308
#	231971
#	242122
#	256090
#	273623
#	286218
#
# Disc length: 4037 seconds
#
# Revision: 0
# Processed by: cddbd v1.5.2PL0 Copyright (c) Steve Scherf et al.
# Submitted via: EasyCDDAExtractor 16.0.6.1
#
DISCID=510fc316
DTITLE=패티킴 - History3 - 가을을 남기고 간 사랑
DYEAR=1900
DGENRE=Country
TTITLE0=가을을 남기고 간 사랑
TTITLE1=가시나무새
TTITLE2=사랑은 멀어지고 이별은 가까이
TTITLE3=꿈은 아닌데
TTITLE4=가을의연인
TTITLE5=무인도
TTITLE6=바람
TTITLE7=사랑이여 그날까지
TTITLE8=사랑이 메아리칠때
TTITLE9=그대없이는 못살아
TTITLE10=다시한번안녕
TTITLE11=작은별
TTITLE12=추억속에 혼자 걸었네
TTITLE13=사랑의 세레나데
TTITLE14=눈이 내리네
TTITLE15=사랑이란 두글자
TTITLE16=예스터데이 (YESTERDAY)
TTITLE17=투모로우 (TOMORROW)
TTITLE18=가을을남기고간사랑(노래방)
TTITLE19=가시나무새(노래방)
TTITLE20=사랑의맹세(노래방)
TTITLE21=구월의노래(노래방)
EXTD=
EXTT0=
EXTT1=
EXTT2=
EXTT3=
EXTT4=
EXTT5=
EXTT6=
EXTT7=
EXTT8=
EXTT9=
EXTT10=
EXTT11=
EXTT12=
EXTT13=
EXTT14=
EXTT15=
EXTT16=
EXTT17=
EXTT18=
EXTT19=
EXTT20=
EXTT21=
PLAYORDER=
